<?xml version="1.0" encoding="utf-8"?>
<!-- Generator: Adobe Illustrator 28.0.0, SVG Export Plug-In . SVG Version: 6.00 Build 0)  -->
<svg version="1.1" id="Layer_1" xmlns="http://www.w3.org/2000/svg" xmlns:xlink="http://www.w3.org/1999/xlink" x="0px" y="0px"
	 viewBox="0 0 400 48" style="enable-background:new 0 0 400 48;" xml:space="preserve">
<style type="text/css">
	.st0{fill:#1D1D1D;}
</style>
<g>
	<g>
		<path class="st0" d="M163,47.2h-13.1L149,26.1l-0.4-8.4c-0.1,1.6-0.3,3.2-0.5,4.7c-0.2,1.5-0.4,2.9-0.7,4.3l-3.9,20.7h-10.2
			L130,26.5c-0.2-1.2-0.5-3.3-0.8-6.2c0-0.4-0.1-1.3-0.3-2.7l-0.3,8.6l-1.1,21h-13.3l5.4-46.4h15.5l2.6,15.6
			c0.2,1.3,0.4,2.7,0.6,4.2c0.2,1.5,0.3,3.1,0.5,4.9c0.3-2.9,0.6-5.6,1.1-7.9L143,0.8h15.4L163,47.2L163,47.2z"/>
		<path class="st0" d="M185.4,24.3c0-8.4-1.5-12.6-4.4-12.6c-1.5,0-2.7,1.1-3.5,3.3c-0.9,2-1.3,5-1.3,9s0.4,6.9,1.2,9.1
			c0.8,2.1,1.9,3.2,3.4,3.2c1.4,0,2.6-1.1,3.4-3.2C185,31,185.4,28.1,185.4,24.3L185.4,24.3z M198.3,24.2c0,7.1-1.6,12.8-4.8,17.2
			c-3.2,4.4-7.4,6.6-12.5,6.6c-4.6,0-8.5-1.7-11.7-5.1c-4.1-4.3-6.1-10.7-6.1-19.3s2.1-14.5,6.4-18.8c3.2-3.2,6.9-4.8,11.3-4.8
			c5.3,0,9.6,2.2,12.7,6.5C196.8,10.9,198.3,16.8,198.3,24.2z"/>
		<path class="st0" d="M219.4,0.8h12.5v32.8c0,2.7-0.4,5-1.3,6.7c-0.8,1.8-2.2,3.4-4.2,4.8c-2.6,1.9-5.8,2.9-9.6,2.9
			c-4.3,0-7.9-1.1-10.7-3.2c-3.7-2.7-5.5-7-5.5-13v-31H213v29.9c0,2,0.2,3.5,0.7,4.3c0.5,0.8,1.3,1.3,2.5,1.3s2-0.4,2.5-1.2
			c0.5-0.8,0.7-2.3,0.7-4.4L219.4,0.8L219.4,0.8z"/>
		<path class="st0" d="M234.1,46.1V31.5c2.5,3.4,5.1,5,8,5c1.1,0,2-0.3,2.6-0.8c0.7-0.6,1-1.3,1-2.2c0-1.2-0.7-2.5-2.2-3.6l-2-1.6
			c-1.4-1-2.5-2-3.5-3c-1-1-1.7-2.1-2.3-3.1c-0.6-1.1-1-2.2-1.3-3.3c-0.3-1.1-0.4-2.3-0.4-3.6c0-2.2,0.5-4.4,1.5-6.8
			c0.5-1.1,1.1-2.1,1.7-3c0.7-0.9,1.4-1.7,2.3-2.4c2.4-2,5.2-3,8.5-3c3,0,6,0.8,9,2.4v14.2c-1-1.6-2.2-2.8-3.5-3.7
			c-1.3-0.9-2.6-1.4-3.8-1.4c-1,0-1.7,0.3-2.4,0.8c-0.6,0.5-1,1.2-1,2c0,1.2,0.8,2.5,2.5,3.7l2,1.5c2.6,1.9,4.5,3.9,5.7,5.9
			c1.2,2,1.7,4.3,1.7,7c0,4.6-1.4,8.3-4.2,11.3c-2.8,3-6.3,4.4-10.5,4.4C240.6,48,237.5,47.4,234.1,46.1L234.1,46.1z"/>
		<polygon class="st0" points="278.5,47.2 266,47.2 266,12 259.1,12 259.1,0.8 285.7,0.8 285.7,12 278.5,12 		"/>
		<path class="st0" d="M301.3,31.4l-0.8-5.4c0,0-0.1-0.3-0.1-0.8c0-0.4-0.2-2.2-0.6-5.2c0-0.3-0.1-0.8-0.1-1.4
			c-0.1-0.6-0.1-1.4-0.2-2.3l-0.4-4.4c0,0.4-0.1,0.9-0.2,1.4c-0.1,0.5-0.1,1.1-0.2,1.7c-0.1,1.2-0.2,2.1-0.3,2.6
			c-0.1,0.5-0.1,0.8-0.1,0.9l-0.9,5.6l-1.3,7.3L301.3,31.4L301.3,31.4z M316.6,47.2h-12.9l-0.9-5.9h-8.4l-1,5.9h-12.9l11.1-46.4
			h15.3L316.6,47.2L316.6,47.2z"/>
		<path class="st0" d="M341.8,33l-0.7,13.4c-2.8,1.1-5.3,1.7-7.5,1.7c-5.2,0-9.5-1.9-13.1-5.7c-4-4.3-5.9-10.3-5.9-18.1
			c0-7.3,1.9-13.2,5.6-17.6c3.7-4.4,8.7-6.6,14.9-6.6c2,0,4.1,0.4,6.2,1.1v13.2c-1.9-1.9-3.8-2.8-5.7-2.8c-2.6,0-4.6,1.1-6,3.3
			c-1.4,2.2-2.2,5.2-2.2,9.1c0,1.9,0.2,3.6,0.5,5c0.4,1.5,0.9,2.7,1.5,3.8c0.7,1,1.5,1.8,2.5,2.3s2.1,0.8,3.4,0.8
			C337.5,36,339.6,35,341.8,33L341.8,33z"/>
		<polygon class="st0" points="374.6,47.2 362.1,47.2 362.1,28.6 356.1,28.6 356.1,47.2 343.7,47.2 343.7,0.8 356.1,0.8 356.1,17.2 
			362.1,17.2 362.1,0.8 374.6,0.8 		"/>
		<polygon class="st0" points="376.8,47.2 376.8,24 376.8,0.8 400,0.8 400,11.8 389.3,11.8 389.3,18.5 398.9,18.5 398.9,29 
			389.3,29 389.3,36.1 400,36.1 400,47.2 		"/>
	</g>
	<path class="st0" d="M105.1,15.4c-2.8,3-6.8,4.8-11.2,4.9c-6.2,0.1-11.6-3.7-13.8-8.8C77,4.1,72.1,1,65.6,1c-5.4,0-10.1,2.8-12.9,7
		C50,3.8,45.2,1,39.8,1c-6.6,0-11.4,3.2-14.6,10.5c-2.2,5-7.5,8.8-13.8,8.8c-4.4,0-8.4-1.9-11.2-4.9C0.1,16.7,0,18,0,19.3
		c0,15.3,12.4,27.8,27.7,27.8c4.7,0,9.1-1.2,13-3.2c5.2-2.8,9.4-7.3,11.9-12.8c2.5,5.4,6.7,9.9,11.9,12.8c3.9,2.1,8.3,3.2,13,3.2
		c15.3,0,27.7-12.4,27.7-27.8C105.4,18,105.3,16.7,105.1,15.4L105.1,15.4z"/>
</g>
</svg>
