<?xml version="1.0" encoding="utf-8"?>
<!-- Generator: Adobe Illustrator 28.0.0, SVG Export Plug-In . SVG Version: 6.00 Build 0)  -->
<svg version="1.1" id="Layer_1" xmlns="http://www.w3.org/2000/svg" xmlns:xlink="http://www.w3.org/1999/xlink" x="0px" y="0px"
	 viewBox="0 0 1632 196" style="enable-background:new 0 0 1632 196;" xml:space="preserve">
<style type="text/css">
	.st0{fill:#1D1D1D;}
</style>
<g>
	<g>
		<path class="st0" d="M664.9,192.7h-53.3l-3.8-86.3L606.2,72c-0.6,6.6-1.2,13-2,19c-0.7,6-1.6,11.8-2.7,17.4l-16,84.3h-41.5
			l-13.7-84.5c-0.8-4.9-1.9-13.3-3.3-25.2c-0.2-1.8-0.5-5.5-1.1-11l-1.2,34.9l-4.5,85.8H466L488,3.4h63.4L562,67.2
			c0.9,5.2,1.7,10.9,2.3,17c0.7,6.1,1.4,12.8,1.9,20c1.1-12,2.5-22.8,4.4-32.2l13-68.5h62.9L664.9,192.7L664.9,192.7z"/>
		<path class="st0" d="M756.3,99.1c0-34.2-6-51.4-18.1-51.4c-6,0-10.8,4.5-14.4,13.5c-3.5,8.3-5.2,20.6-5.2,36.8s1.6,28.3,4.9,37.1
			c3.3,8.7,7.9,13.1,13.8,13.1s10.7-4.3,13.9-13C754.6,126.6,756.3,114.5,756.3,99.1L756.3,99.1z M809.2,98.7
			c0,28.9-6.6,52.3-19.7,70.4c-13,18-30,27-50.9,27c-18.6,0-34.5-6.9-47.8-20.7c-16.7-17.5-25-43.7-25-78.7s8.7-59.1,26.1-76.9
			C704.9,6.6,720.3,0,738,0c21.8,0,39,8.9,51.9,26.7S809.2,68.5,809.2,98.7z"/>
		<path class="st0" d="M894.9,3.4h50.9v133.9c0,11.2-1.8,20.3-5.2,27.2c-3.4,7.3-9.1,13.9-17.1,19.7c-10.8,7.8-23.8,11.8-39.2,11.8
			c-17.4,0-32.1-4.3-43.9-13c-15-11-22.5-28.7-22.5-53V3.4h50.9v122.1c0,8.2,1,14.1,2.9,17.5c2,3.4,5.4,5.1,10.1,5.1
			s8.3-1.6,10.1-4.8c1.9-3.4,2.8-9.3,2.8-17.8L894.9,3.4L894.9,3.4z"/>
		<path class="st0" d="M955.2,188v-59.5c10,13.7,20.8,20.6,32.5,20.6c4.4,0,8-1.1,10.8-3.4c2.8-2.4,4.2-5.3,4.2-8.8
			c0-5.1-3-10-9-14.8l-8.3-6.5c-5.5-4.2-10.3-8.3-14.2-12.4c-3.9-4.2-7.1-8.4-9.5-12.8c-2.4-4.4-4.2-9-5.4-13.6
			c-1.1-4.7-1.7-9.6-1.7-14.7c0-8.8,2-18.1,6.1-27.7c2-4.5,4.4-8.6,7.1-12.3c2.7-3.8,5.8-7.1,9.3-9.9C986.6,4.1,998.2,0,1011.8,0
			c12.1,0,24.3,3.2,36.7,9.7v57.9c-4.2-6.5-8.9-11.5-14.2-15.2c-5.3-3.8-10.5-5.6-15.6-5.6c-3.9,0-7.1,1.1-9.7,3.4
			c-2.6,2.2-3.9,4.9-3.9,8c0,5.1,3.5,10.1,10.4,15.1l8.1,6c10.8,7.8,18.4,15.7,23.1,23.9c4.7,8.2,7.1,17.7,7.1,28.7
			c0,18.6-5.7,34-17,46.1c-11.3,12.1-25.7,18.1-43,18.1C981.7,196,968.9,193.3,955.2,188L955.2,188z"/>
		<polygon class="st0" points="1136.3,192.7 1085.4,192.7 1085.4,48.8 1057.3,48.8 1057.3,3.4 1165.5,3.4 1165.5,48.8 1136.3,48.8 
					"/>
		<path class="st0" d="M1229.3,128.1L1226,106c-0.1-0.1-0.2-1.2-0.5-3.3c-0.2-1.8-1-8.9-2.6-21.3c-0.2-1.4-0.4-3.3-0.6-5.6
			c-0.2-2.4-0.6-5.5-1-9.2l-1.6-17.9c-0.2,1.7-0.4,3.6-0.7,5.8c-0.2,2.1-0.5,4.4-0.9,7c-0.6,5.1-1,8.6-1.2,10.5
			c-0.2,2-0.4,3.1-0.5,3.6l-3.5,22.9l-5.1,29.7L1229.3,128.1L1229.3,128.1z M1291.8,192.7h-52.7l-3.8-24H1201l-4.2,24h-52.7
			l45.3-189.3h62.3L1291.8,192.7L1291.8,192.7z"/>
		<path class="st0" d="M1394.6,134.5l-2.9,54.7c-11.3,4.6-21.5,6.9-30.4,6.9c-21.1,0-38.8-7.8-53.3-23.3
			c-16.1-17.4-24.2-42-24.2-73.9c0-29.8,7.6-53.8,22.7-71.8c15.2-18,35.4-27,60.7-27c8.2,0,16.6,1.6,25.2,4.7v54.1
			c-7.6-7.6-15.3-11.4-23.3-11.4c-10.4,0-18.6,4.4-24.4,13.4c-5.9,9-8.8,21.4-8.8,37.3c0,7.7,0.7,14.5,2.2,20.6
			c1.5,6,3.5,11.1,6.2,15.3c2.8,4.2,6.2,7.4,10.1,9.6s8.6,3.3,13.7,3.3C1376.9,146.7,1385.7,142.6,1394.6,134.5L1394.6,134.5z"/>
		<polygon class="st0" points="1528.3,192.7 1477.4,192.7 1477.4,116.6 1453.1,116.6 1453.1,192.7 1402.1,192.7 1402.1,3.4 
			1453.1,3.4 1453.1,70.4 1477.4,70.4 1477.4,3.4 1528.3,3.4 		"/>
		<polygon class="st0" points="1537.3,192.7 1537.3,98.1 1537.3,3.4 1632,3.4 1632,47.9 1588.3,47.9 1588.3,75.5 1627.5,75.5 
			1627.5,118.3 1588.3,118.3 1588.3,147.2 1632,147.2 1632,192.7 		"/>
	</g>
	<path class="st0" d="M428.9,62.8c-11.4,12.2-27.6,19.7-45.6,19.9c-25.5,0.2-47.2-15.3-56.2-35.7C314,16.9,294.3,4,267.5,4
		c-22,0-41.4,11.4-52.5,28.7C203.9,15.5,184.6,4,162.5,4c-26.9,0-46.5,12.9-59.6,42.9c-8.9,20.5-30.7,36-56.2,35.7
		c-18-0.2-34.2-7.6-45.6-19.9C0.4,68,0,73.3,0,78.7C0,141.3,50.7,192,113.2,192c19.2,0,37.2-4.8,53.1-13.2
		c21.3-11.6,38.5-29.9,48.7-52c10.2,22.1,27.4,40.4,48.7,52c15.8,8.4,33.9,13.2,53.1,13.2C379.3,192,430,141.3,430,78.7
		C430,73.3,429.6,68,428.9,62.8L428.9,62.8z"/>
</g>
</svg>
