<?xml version="1.0" encoding="UTF-8"?><svg id="Layer_1" xmlns="http://www.w3.org/2000/svg" viewBox="0 0 2000 554.98"><defs><style>.cls-1{fill:#1d1d1d;}</style></defs><g><path class="cls-1" d="M849.13,371.66h-53.26l-3.79-86.29-1.59-34.44c-.57,6.62-1.22,12.95-1.95,19-.73,5.97-1.63,11.77-2.69,17.41l-16,84.33h-41.54l-13.68-84.46c-.81-4.9-1.91-13.32-3.3-25.25-.16-1.8-.53-5.48-1.1-11.03l-1.22,34.93-4.52,85.8h-54.24l21.99-189.26h63.4l10.63,63.74c.9,5.23,1.67,10.91,2.32,17.04,.73,6.13,1.38,12.79,1.95,19.98,1.06-12.01,2.52-22.76,4.4-32.24l12.95-68.52h62.91l18.32,189.26Z"/><path class="cls-1" d="M940.6,278.01c0-34.24-6.03-51.36-18.08-51.36-6.03,0-10.83,4.49-14.42,13.48-3.5,8.34-5.25,20.59-5.25,36.77s1.63,28.32,4.89,37.14c3.34,8.74,7.94,13.12,13.8,13.12s10.67-4.33,13.93-12.99c3.42-8.66,5.13-20.72,5.13-36.16Zm52.9-.37c0,28.85-6.56,52.3-19.67,70.36-13.03,17.98-30.01,26.97-50.94,26.97-18.57,0-34.49-6.91-47.77-20.72-16.7-17.49-25.04-43.72-25.04-78.69s8.71-59.12,26.14-76.86c12.95-13.16,28.3-19.73,46.06-19.73,21.75,0,39.05,8.91,51.92,26.72,12.87,17.81,19.3,41.8,19.3,71.95Z"/><path class="cls-1" d="M1079.2,182.4h50.94v133.85c0,11.2-1.75,20.27-5.25,27.21-3.42,7.27-9.12,13.85-17.1,19.73-10.75,7.84-23.82,11.77-39.21,11.77-17.43,0-32.05-4.33-43.86-12.99-14.99-11.03-22.48-28.68-22.48-52.95v-126.62h50.94v122.09c0,8.25,.98,14.1,2.93,17.53,2.04,3.43,5.42,5.15,10.14,5.15s8.27-1.59,10.14-4.78c1.87-3.35,2.81-9.27,2.81-17.77v-122.21Z"/><path class="cls-1" d="M1139.49,367v-59.45c10.02,13.73,20.85,20.59,32.5,20.59,4.4,0,7.98-1.14,10.75-3.43,2.77-2.37,4.15-5.31,4.15-8.83,0-5.07-3.01-10.01-9.04-14.83l-8.31-6.5c-5.54-4.17-10.26-8.29-14.17-12.38-3.91-4.17-7.09-8.42-9.53-12.75-2.44-4.41-4.23-8.95-5.38-13.61-1.14-4.66-1.71-9.56-1.71-14.71,0-8.83,2.04-18.06,6.11-27.7,2.04-4.49,4.4-8.58,7.09-12.26,2.69-3.76,5.78-7.07,9.28-9.93,9.61-8.17,21.22-12.26,34.82-12.26,12.14,0,24.35,3.23,36.65,9.68v57.86c-4.15-6.46-8.88-11.52-14.17-15.2-5.29-3.76-10.51-5.64-15.64-5.64-3.91,0-7.13,1.14-9.65,3.43-2.61,2.21-3.91,4.86-3.91,7.97,0,5.07,3.46,10.09,10.38,15.08l8.06,6.01c10.75,7.76,18.45,15.73,23.09,23.9,4.72,8.17,7.09,17.73,7.09,28.68,0,18.63-5.66,33.99-16.98,46.09-11.32,12.09-25.65,18.14-43,18.14-11.97,0-24.8-2.66-38.48-7.97Z"/><polygon class="cls-1" points="1320.58 371.66 1269.64 371.66 1269.64 227.76 1241.54 227.76 1241.54 182.4 1349.78 182.4 1349.78 227.76 1320.58 227.76 1320.58 371.66"/><path class="cls-1" d="M1413.6,307.06l-3.3-22.06c-.08-.08-.24-1.18-.49-3.31-.16-1.8-1.02-8.91-2.57-21.33-.16-1.39-.37-3.27-.61-5.64-.24-2.45-.57-5.52-.98-9.19l-1.59-17.9c-.16,1.72-.41,3.64-.73,5.76-.24,2.12-.53,4.45-.86,6.99-.57,5.07-.98,8.58-1.22,10.54-.24,1.96-.41,3.15-.49,3.55l-3.54,22.92-5.13,29.66h21.5Zm62.43,64.6h-52.65l-3.79-24.02h-34.33l-4.15,24.02h-52.65l45.32-189.26h62.3l39.95,189.26Z"/><path class="cls-1" d="M1578.86,313.44l-2.93,54.67c-11.32,4.58-21.46,6.86-30.42,6.86-21.09,0-38.85-7.76-53.26-23.29-16.13-17.41-24.19-42.04-24.19-73.91,0-29.83,7.57-53.77,22.72-71.83,15.15-17.98,35.39-26.97,60.72-26.97,8.23,0,16.61,1.55,25.17,4.66v54.06c-7.57-7.6-15.35-11.4-23.33-11.4-10.42,0-18.57,4.45-24.43,13.36-5.86,8.99-8.8,21.41-8.8,37.26,0,7.68,.73,14.55,2.2,20.59,1.47,6.05,3.54,11.15,6.23,15.32,2.77,4.17,6.15,7.35,10.14,9.56s8.55,3.31,13.68,3.31c8.8,0,17.63-4.09,26.51-12.26Z"/><polygon class="cls-1" points="1712.58 371.66 1661.63 371.66 1661.63 295.54 1637.32 295.54 1637.32 371.66 1586.38 371.66 1586.38 182.4 1637.32 182.4 1637.32 249.33 1661.63 249.33 1661.63 182.4 1712.58 182.4 1712.58 371.66"/><polygon class="cls-1" points="1721.57 371.66 1721.57 277.03 1721.57 182.4 1816.25 182.4 1816.25 226.9 1772.52 226.9 1772.52 254.48 1811.73 254.48 1811.73 297.26 1772.52 297.26 1772.52 326.19 1816.25 326.19 1816.25 371.66 1721.57 371.66"/></g><path class="cls-1" d="M613.13,241.73c-11.37,12.23-27.59,19.71-45.6,19.89-25.47,.24-47.25-15.26-56.18-35.72-13.12-30.04-32.79-42.93-59.65-42.93-22.03,0-41.37,11.45-52.45,28.72-11.08-17.27-30.42-28.72-52.45-28.72-26.86,0-46.52,12.9-59.65,42.93-8.94,20.46-30.72,35.97-56.18,35.72-18.01-.17-34.22-7.65-45.6-19.89-.73,5.19-1.12,10.51-1.12,15.91,0,62.59,50.68,113.33,113.19,113.33,19.19,0,37.24-4.79,53.07-13.22,21.32-11.62,38.49-29.9,48.73-52.04,10.24,22.15,27.41,40.44,48.73,52.04,15.83,8.43,33.89,13.22,53.07,13.22,62.51,0,113.19-50.74,113.19-113.33,0-5.4-.39-10.72-1.12-15.91Z"/></svg>